<?xml version="1.0" encoding="utf-8"?>
<!-- Generator: Adobe Illustrator 24.0.1, SVG Export Plug-In . SVG Version: 6.00 Build 0)  -->
<svg version="1.1" id="Layer_1" xmlns="http://www.w3.org/2000/svg" xmlns:xlink="http://www.w3.org/1999/xlink" x="0px" y="0px"
	 viewBox="0 0 758 237.89" style="enable-background:new 0 0 758 237.89;" xml:space="preserve">
<style type="text/css">
	.st0{fill:none;}
	.st1{fill:#FFFFFF;}
	.st2{font-family:'GENISO';}
	.st3{font-size:200px;}
	.st4{letter-spacing:2;}
</style>
<rect y="35.93" class="st0" width="758" height="165"/>
<text transform="matrix(1 0 0 1 0 165.5273)" class="st1 st2 st3 st4">Ren</text>
<rect x="342.02" y="39.58" class="st0" width="758" height="165"/>
<text transform="matrix(1 0 0 1 342.0213 169.1763)" class="st1 st2 st3 st4">deed</text>
<g>
	<path class="st1" d="M331.89-4.88l0.3,7.83l0.23,7.83l0.45,15.65c0.23,10.44,0.45,20.87,0.58,31.31
		c0.18,10.44,0.23,20.87,0.33,31.31l0.11,31.31l-0.11,31.31c-0.11,10.44-0.15,20.87-0.33,31.31c-0.13,10.44-0.35,20.87-0.58,31.31
		l-0.45,15.65l-0.23,7.83l-0.3,7.83l-0.3-7.83l-0.23-7.83l-0.45-15.65c-0.23-10.44-0.45-20.87-0.58-31.31
		c-0.19-10.44-0.22-20.87-0.33-31.31l-0.11-31.31l0.11-31.31c0.11-10.44,0.15-20.87,0.33-31.31c0.13-10.44,0.35-20.87,0.58-31.31
		l0.45-15.65l0.23-7.83L331.89-4.88z"/>
</g>
</svg>
