<svg id="Layer_1" data-name="Layer 1" xmlns="http://www.w3.org/2000/svg" viewBox="0 0 1100.02 250.47"><defs><style>.cls-1{font-size:200px;font-family:GENISO;letter-spacing:0.01em;}</style></defs><title>Logo_Rendeed_Logo</title><text class="cls-1" transform="translate(0 170.41)">Ren</text><text class="cls-1" transform="translate(342.02 174.06)">deed</text><path d="M363.17,28.72l.3,7.83.23,7.83L364.14,60q.36,15.66.58,31.31c.19,10.44.23,20.87.34,31.31l.11,31.31-.11,31.31c-.11,10.43-.14,20.87-.33,31.3s-.35,20.88-.58,31.31l-.45,15.66-.23,7.82-.3,7.83-.3-7.83-.23-7.82-.45-15.66c-.23-10.43-.45-20.87-.58-31.31s-.22-20.87-.33-31.3L361.17,154l.11-31.31c.11-10.44.15-20.87.34-31.31S362,70.47,362.2,60l.44-15.65.23-7.83Z" transform="translate(-31.28 -28.72)"/></svg>